{
  "accessors": [
    {
      "bufferView": 2,
      "componentType": 5126,
      "count": 2042,
      "max": [
        1.8709219694137573,
        -2.292712926864624,
        2.249211072921753
      ],
      "min": [
        -1.8709219694137573,
        -3.539973020553589,
        0.9632250070571899
      ],
      "type": "VEC3"
    },
    {
      "bufferView": 2,
      "byteOffset": 24504,
      "componentType": 5126,
      "count": 2042,
      "max": [
        0.9981864094734192,
        0.9948784112930298,
        0.9966858625411987
      ],
      "min": [
        -0.9981864094734192,
        -0.9998741149902344,
        -0.9966858625411987
      ],
      "type": "VEC3"
    },
    {
      "bufferView": 1,
      "componentType": 5126,
      "count": 2042,
      "max": [
        1.0,
        1.0
      ],
      "min": [
        0.0,
        0.0
      ],
      "type": "VEC2"
    },
    {
      "bufferView": 0,
      "componentType": 5125,
      "count": 9600,
      "type": "SCALAR"
    },
    {
      "bufferView": 2,
      "byteOffset": 49008,
      "componentType": 5126,
      "count": 65532,
      "max": [
        3.7981090545654297,
        3.790426015853882,
        6.117558002471924
      ],
      "min": [
        -3.0132060050964355,
        -2.081033945083618,
        -4.823336124420166
      ],
      "type": "VEC3"
    },
    {
      "bufferView": 2,
      "byteOffset": 835392,
      "componentType": 5126,
      "count": 65532,
      "max": [
        0.9999973773956299,
        0.999990701675415,
        0.999943733215332
      ],
      "min": [
        -0.9207760691642761,
        -0.9998757839202881,
        -0.9850808382034302
      ],
      "type": "VEC3"
    },
    {
      "bufferView": 0,
      "byteOffset": 38400,
      "componentType": 5125,
      "count": 345327,
      "type": "SCALAR"
    },
    {
      "bufferView": 2,
      "byteOffset": 1621776,
      "componentType": 5126,
      "count": 65532,
      "max": [
        3.7224550247192383,
        3.787026882171631,
        6.140250205993652
      ],
      "min": [
        -3.617130994796753,
        -1.563297986984253,
        -5.6462249755859375
      ],
      "type": "VEC3"
    },
    {
      "bufferView": 2,
      "byteOffset": 2408160,
      "componentType": 5126,
      "count": 65532,
      "max": [
        0.9999979734420776,
        0.9999997615814209,
        0.9999961853027344
      ],
      "min": [
        -0.9990451335906982,
        -0.9996804594993591,
        -0.999901533126831
      ],
      "type": "VEC3"
    },
    {
      "bufferView": 0,
      "byteOffset": 1419708,
      "componentType": 5125,
      "count": 334986,
      "type": "SCALAR"
    },
    {
      "bufferView": 2,
      "byteOffset": 3194544,
      "componentType": 5126,
      "count": 65532,
      "max": [
        3.3086190223693848,
        2.6679060459136963,
        6.137886047363281
      ],
      "min": [
        -3.2046959400177,
        -4.144690990447998,
        -6.0000081062316895
      ],
      "type": "VEC3"
    },
    {
      "bufferView": 2,
      "byteOffset": 3980928,
      "componentType": 5126,
      "count": 65532,
      "max": [
        1.0,
        0.9503017067909241,
        0.9999402761459351
      ],
      "min": [
        -0.999985933303833,
        -0.9999643564224243,
        -0.9998293519020081
      ],
      "type": "VEC3"
    },
    {
      "bufferView": 0,
      "byteOffset": 2759652,
      "componentType": 5125,
      "count": 343740,
      "type": "SCALAR"
    },
    {
      "bufferView": 2,
      "byteOffset": 4767312,
      "componentType": 5126,
      "count": 65532,
      "max": [
        2.900278091430664,
        3.2217190265655518,
        6.138888835906982
      ],
      "min": [
        -3.1998960971832275,
        -5.00889778137207,
        -6.495451927185059
      ],
      "type": "VEC3"
    },
    {
      "bufferView": 2,
      "byteOffset": 5553696,
      "componentType": 5126,
      "count": 65532,
      "max": [
        0.9998749494552612,
        0.8980315923690796,
        0.9997455477714539
      ],
      "min": [
        -0.9999945163726807,
        -0.9999985694885254,
        -0.9998096823692322
      ],
      "type": "VEC3"
    },
    {
      "bufferView": 0,
      "byteOffset": 4134612,
      "componentType": 5125,
      "count": 323859,
      "type": "SCALAR"
    },
    {
      "bufferView": 2,
      "byteOffset": 6340080,
      "componentType": 5126,
      "count": 65532,
      "max": [
        2.134438991546631,
        3.709322929382324,
        6.119484901428223
      ],
      "min": [
        -3.7950730323791504,
        -4.972221851348877,
        -6.524918079376221
      ],
      "type": "VEC3"
    },
    {
      "bufferView": 2,
      "byteOffset": 7126464,
      "componentType": 5126,
      "count": 65532,
      "max": [
        0.999567449092865,
        0.9998037219047546,
        0.9955960512161255
      ],
      "min": [
        -0.9999874830245972,
        -0.9999997615814209,
        -0.9999034404754639
      ],
      "type": "VEC3"
    },
    {
      "bufferView": 0,
      "byteOffset": 5430048,
      "componentType": 5125,
      "count": 329043,
      "type": "SCALAR"
    },
    {
      "bufferView": 2,
      "byteOffset": 7912848,
      "componentType": 5126,
      "count": 65532,
      "max": [
        0.1624460071325302,
        3.405622959136963,
        6.139955997467041
      ],
      "min": [
        -3.7980849742889404,
        -4.0304789543151855,
        -5.82506799697876
      ],
      "type": "VEC3"
    },
    {
      "bufferView": 2,
      "byteOffset": 8699232,
      "componentType": 5126,
      "count": 65532,
      "max": [
        0.9347445368766785,
        0.9998688697814941,
        0.99998939037323
      ],
      "min": [
        -0.9999997615814209,
        -0.9998624324798584,
        -0.999882698059082
      ],
      "type": "VEC3"
    },
    {
      "bufferView": 0,
      "byteOffset": 6746220,
      "componentType": 5125,
      "count": 342192,
      "type": "SCALAR"
    },
    {
      "bufferView": 2,
      "byteOffset": 9485616,
      "componentType": 5126,
      "count": 65532,
      "max": [
        0.09145499765872955,
        0.09101899713277817,
        5.813477993011475
      ],
      "min": [
        -3.300889015197754,
        -5.007669925689697,
        -6.52488899230957
      ],
      "type": "VEC3"
    },
    {
      "bufferView": 2,
      "byteOffset": 10272000,
      "componentType": 5126,
      "count": 65532,
      "max": [
        0.9999382495880127,
        0.9381971955299377,
        0.9999115467071533
      ],
      "min": [
        -0.9999761581420898,
        -0.9999914169311523,
        -0.9998719692230225
      ],
      "type": "VEC3"
    },
    {
      "bufferView": 0,
      "byteOffset": 8114988,
      "componentType": 5125,
      "count": 330021,
      "type": "SCALAR"
    },
    {
      "bufferView": 2,
      "byteOffset": 11058384,
      "componentType": 5126,
      "count": 49763,
      "max": [
        3.7916998863220215,
        3.7898759841918945,
        6.137094020843506
      ],
      "min": [
        -3.7944118976593018,
        -5.0003437995910645,
        -6.516653060913086
      ],
      "type": "VEC3"
    },
    {
      "bufferView": 2,
      "byteOffset": 11655540,
      "componentType": 5126,
      "count": 49763,
      "max": [
        0.9999061822891235,
        0.9998329281806946,
        0.9998111128807068
      ],
      "min": [
        -0.9999688863754272,
        -0.999839723110199,
        -0.9985209107398987
      ],
      "type": "VEC3"
    },
    {
      "bufferView": 0,
      "byteOffset": 9435072,
      "componentType": 5125,
      "count": 102750,
      "type": "SCALAR"
    }
  ],
  "asset": {
    "extras": {
      "author": "C.J..Goldman (https://sketchfab.com/C.J..Goldman)",
      "license": "CC-BY-4.0 (http://creativecommons.org/licenses/by/4.0/)",
      "source": "https://sketchfab.com/3d-models/male-head-nov-10-23d4ee851ab7462bb75c546fcf38ec59",
      "title": "Male head Nov. 10"
    },
    "generator": "Sketchfab-16.82.0",
    "version": "2.0"
  },
  "bufferViews": [
    {
      "buffer": 0,
      "byteLength": 9846072,
      "name": "floatBufferViews",
      "target": 34963
    },
    {
      "buffer": 0,
      "byteLength": 16336,
      "byteOffset": 9846072,
      "byteStride": 8,
      "name": "floatBufferViews",
      "target": 34962
    },
    {
      "buffer": 0,
      "byteLength": 12252696,
      "byteOffset": 9862408,
      "byteStride": 12,
      "name": "floatBufferViews",
      "target": 34962
    }
  ],
  "buffers": [
    {
      "byteLength": 22115104,
      "uri": "head.bin"
    }
  ],
  "materials": [
    {
      "doubleSided": true,
      "name": "grey",
      "pbrMetallicRoughness": {
        "baseColorFactor": [
          0.643110762877592,
          0.5678397042228616,
          0.49282150483327897,
          1.0
        ],
        "metallicFactor": 0.46731807964292027,
        "roughnessFactor": 0.582705264377803
      }
    }
  ],
  "meshes": [
    {
      "name": "Object_0",
      "primitives": [
        {
          "attributes": {
            "NORMAL": 1,
            "POSITION": 0,
            "TEXCOORD_0": 2
          },
          "indices": 3,
          "material": 0,
          "mode": 4
        }
      ]
    },
    {
      "name": "Object_1",
      "primitives": [
        {
          "attributes": {
            "NORMAL": 5,
            "POSITION": 4
          },
          "indices": 6,
          "material": 0,
          "mode": 4
        }
      ]
    },
    {
      "name": "Object_2",
      "primitives": [
        {
          "attributes": {
            "NORMAL": 8,
            "POSITION": 7
          },
          "indices": 9,
          "material": 0,
          "mode": 4
        }
      ]
    },
    {
      "name": "Object_3",
      "primitives": [
        {
          "attributes": {
            "NORMAL": 11,
            "POSITION": 10
          },
          "indices": 12,
          "material": 0,
          "mode": 4
        }
      ]
    },
    {
      "name": "Object_4",
      "primitives": [
        {
          "attributes": {
            "NORMAL": 14,
            "POSITION": 13
          },
          "indices": 15,
          "material": 0,
          "mode": 4
        }
      ]
    },
    {
      "name": "Object_5",
      "primitives": [
        {
          "attributes": {
            "NORMAL": 17,
            "POSITION": 16
          },
          "indices": 18,
          "material": 0,
          "mode": 4
        }
      ]
    },
    {
      "name": "Object_6",
      "primitives": [
        {
          "attributes": {
            "NORMAL": 20,
            "POSITION": 19
          },
          "indices": 21,
          "material": 0,
          "mode": 4
        }
      ]
    },
    {
      "name": "Object_7",
      "primitives": [
        {
          "attributes": {
            "NORMAL": 23,
            "POSITION": 22
          },
          "indices": 24,
          "material": 0,
          "mode": 4
        }
      ]
    },
    {
      "name": "Object_8",
      "primitives": [
        {
          "attributes": {
            "NORMAL": 26,
            "POSITION": 25
          },
          "indices": 27,
          "material": 0,
          "mode": 4
        }
      ]
    }
  ],
  "nodes": [
    {
      "children": [
        1
      ],
      "matrix": [
        1.0,
        0.0,
        0.0,
        0.0,
        0.0,
        2.220446049250313e-16,
        -1.0,
        0.0,
        0.0,
        1.0,
        2.220446049250313e-16,
        0.0,
        0.0,
        0.0,
        0.0,
        1.0
      ],
      "name": "Sketchfab_model"
    },
    {
      "children": [
        2,
        3,
        4,
        5,
        6,
        7,
        8,
        9,
        10
      ],
      "name": "Male head model.obj.cleaner.materialmerger.gles"
    },
    {
      "mesh": 0,
      "name": "Object_2"
    },
    {
      "mesh": 1,
      "name": "Object_3"
    },
    {
      "mesh": 2,
      "name": "Object_4"
    },
    {
      "mesh": 3,
      "name": "Object_5"
    },
    {
      "mesh": 4,
      "name": "Object_6"
    },
    {
      "mesh": 5,
      "name": "Object_7"
    },
    {
      "mesh": 6,
      "name": "Object_8"
    },
    {
      "mesh": 7,
      "name": "Object_9"
    },
    {
      "mesh": 8,
      "name": "Object_10"
    }
  ],
  "scene": 0,
  "scenes": [
    {
      "name": "Sketchfab_Scene",
      "nodes": [
        0
      ]
    }
  ]
}
