{
	"asset":{
		"generator":"Khronos glTF Blender I/O v5.0.21",
		"version":"2.0"
	},
	"extensionsUsed":[
		"KHR_materials_specular",
		"KHR_materials_ior",
		"KHR_texture_transform"
	],
	"extensionsRequired":[
		"KHR_texture_transform"
	],
	"scene":0,
	"scenes":[
		{
			"name":"Scene",
			"nodes":[
				0,
				1
			]
		}
	],
	"nodes":[
		{
			"mesh":0,
			"name":"Plane",
			"scale":[
				33.42483901977539,
				33.42483901977539,
				33.42483901977539
			]
		},
		{
			"mesh":1,
			"name":"island_tree_01_LOD0",
			"rotation":[
				0.09741906821727753,
				0.05200289562344551,
				-0.07586072385311127,
				0.9909845590591431
			],
			"scale":[
				1.2595523595809937,
				1.259552240371704,
				1.259552240371704
			],
			"translation":[
				23.945510864257812,
				-1.1428186893463135,
				17.91620635986328
			]
		}
	],
	"materials":[
		{
			"doubleSided":true,
			"name":"grass_path_2",
			"normalTexture":{
				"index":0
			},
			"pbrMetallicRoughness":{
				"baseColorTexture":{
					"index":1
				},
				"metallicFactor":0,
				"metallicRoughnessTexture":{
					"index":2
				}
			}
		},
		{
			"doubleSided":true,
			"name":"island_tree_01",
			"normalTexture":{
				"index":3
			},
			"pbrMetallicRoughness":{
				"baseColorTexture":{
					"index":4
				},
				"metallicFactor":0,
				"metallicRoughnessTexture":{
					"index":5
				}
			}
		},
		{
			"alphaMode":"BLEND",
			"doubleSided":true,
			"name":"island_tree_01_leaves",
			"normalTexture":{
				"index":6
			},
			"pbrMetallicRoughness":{
				"baseColorTexture":{
					"index":7
				},
				"metallicFactor":0,
				"metallicRoughnessTexture":{
					"index":8
				}
			}
		},
		{
			"doubleSided":true,
			"extensions":{
				"KHR_materials_specular":{
					"specularFactor":0.4100000262260437
				},
				"KHR_materials_ior":{
					"ior":1.4500000476837158
				}
			},
			"name":"island_tree_01_branches",
			"normalTexture":{
				"extensions":{
					"KHR_texture_transform":{
						"offset":[
							0,
							-2.4000000953674316
						],
						"scale":[
							15,
							3.4000000953674316
						]
					}
				},
				"index":9,
				"scale":0.5
			},
			"pbrMetallicRoughness":{
				"baseColorTexture":{
					"extensions":{
						"KHR_texture_transform":{
							"offset":[
								0,
								-2.4000000953674316
							],
							"scale":[
								15,
								3.4000000953674316
							]
						}
					},
					"index":10
				},
				"metallicFactor":0,
				"metallicRoughnessTexture":{
					"extensions":{
						"KHR_texture_transform":{
							"offset":[
								0,
								-2.4000000953674316
							],
							"scale":[
								15,
								3.4000000953674316
							]
						}
					},
					"index":11
				}
			}
		}
	],
	"meshes":[
		{
			"name":"Plane",
			"primitives":[
				{
					"attributes":{
						"POSITION":0,
						"NORMAL":1,
						"TEXCOORD_0":2
					},
					"indices":3,
					"material":0
				}
			]
		},
		{
			"name":"island_trees_01_blockout_cleaned",
			"primitives":[
				{
					"attributes":{
						"POSITION":4,
						"NORMAL":5,
						"TEXCOORD_0":6
					},
					"indices":7,
					"material":1
				},
				{
					"attributes":{
						"POSITION":8,
						"NORMAL":9,
						"TEXCOORD_0":10
					},
					"indices":11,
					"material":2
				},
				{
					"attributes":{
						"POSITION":12,
						"NORMAL":13,
						"TEXCOORD_0":14
					},
					"indices":15,
					"material":3
				}
			]
		}
	],
	"textures":[
		{
			"sampler":0,
			"source":0
		},
		{
			"sampler":0,
			"source":1
		},
		{
			"sampler":0,
			"source":2
		},
		{
			"sampler":0,
			"source":3
		},
		{
			"sampler":0,
			"source":4
		},
		{
			"sampler":0,
			"source":5
		},
		{
			"sampler":0,
			"source":6
		},
		{
			"sampler":0,
			"source":7
		},
		{
			"sampler":0,
			"source":8
		},
		{
			"sampler":0,
			"source":9
		},
		{
			"sampler":0,
			"source":10
		},
		{
			"sampler":0,
			"source":11
		}
	],
	"images":[
		{
			"mimeType":"image/png",
			"name":"grass_path_2_nor_4k",
			"uri":"grass_path_2_nor_4k.png"
		},
		{
			"mimeType":"image/jpeg",
			"name":"grass_path_2_diff_4k",
			"uri":"grass_path_2_diff_4k.jpg"
		},
		{
			"mimeType":"image/png",
			"name":"grass_path_2_rough_4k",
			"uri":"grass_path_2_rough_4k.png"
		},
		{
			"mimeType":"image/png",
			"name":"island_tree_01_nor_gl",
			"uri":"island_tree_01_nor_gl.png"
		},
		{
			"mimeType":"image/jpeg",
			"name":"island_tree_01_diff",
			"uri":"island_tree_01_diff.jpg"
		},
		{
			"mimeType":"image/png",
			"name":"island_tree_01_rough",
			"uri":"island_tree_01_rough.png"
		},
		{
			"mimeType":"image/png",
			"name":"island_tree_01_leaves_nor_gl",
			"uri":"island_tree_01_leaves_nor_gl.png"
		},
		{
			"mimeType":"image/png",
			"name":"island_tree_01_leaves_diff-island_tree_01_leaves_alpha",
			"uri":"island_tree_01_leaves_diff-island_tree_01_leaves_alpha.png"
		},
		{
			"mimeType":"image/png",
			"name":"island_tree_01_leaves_rough",
			"uri":"island_tree_01_leaves_rough.png"
		},
		{
			"mimeType":"image/png",
			"name":"island_tree_01_branches_nor_gl",
			"uri":"island_tree_01_branches_nor_gl.png"
		},
		{
			"mimeType":"image/png",
			"name":"island_tree_01_branches_diff",
			"uri":"island_tree_01_branches_diff.png"
		},
		{
			"mimeType":"image/png",
			"name":"island_tree_01_branches_rough",
			"uri":"island_tree_01_branches_rough.png"
		}
	],
	"accessors":[
		{
			"bufferView":0,
			"componentType":5126,
			"count":16641,
			"max":[
				1,
				0.08993881940841675,
				1.0211647748947144
			],
			"min":[
				-1.0185524225234985,
				-0.06332767754793167,
				-1.0058211088180542
			],
			"type":"VEC3"
		},
		{
			"bufferView":1,
			"componentType":5126,
			"count":16641,
			"type":"VEC3"
		},
		{
			"bufferView":2,
			"componentType":5126,
			"count":16641,
			"type":"VEC2"
		},
		{
			"bufferView":3,
			"componentType":5123,
			"count":98304,
			"type":"SCALAR"
		},
		{
			"bufferView":4,
			"componentType":5126,
			"count":19345,
			"max":[
				1.7236499786376953,
				3.5607376098632812,
				1.2547868490219116
			],
			"min":[
				-1.4278439283370972,
				-0.020327899605035782,
				-1.7317125797271729
			],
			"type":"VEC3"
		},
		{
			"bufferView":5,
			"componentType":5126,
			"count":19345,
			"type":"VEC3"
		},
		{
			"bufferView":6,
			"componentType":5126,
			"count":19345,
			"type":"VEC2"
		},
		{
			"bufferView":7,
			"componentType":5123,
			"count":104361,
			"type":"SCALAR"
		},
		{
			"bufferView":8,
			"componentType":5126,
			"count":927528,
			"max":[
				2.4107038974761963,
				5.0071187019348145,
				2.2341415882110596
			],
			"min":[
				-2.3444457054138184,
				0.6301747560501099,
				-2.583538055419922
			],
			"type":"VEC3"
		},
		{
			"bufferView":9,
			"componentType":5126,
			"count":927528,
			"type":"VEC3"
		},
		{
			"bufferView":10,
			"componentType":5126,
			"count":927528,
			"type":"VEC2"
		},
		{
			"bufferView":11,
			"componentType":5125,
			"count":3180096,
			"type":"SCALAR"
		},
		{
			"bufferView":12,
			"componentType":5126,
			"count":357055,
			"max":[
				2.3549556732177734,
				4.951547622680664,
				2.202267646789551
			],
			"min":[
				-2.3148062229156494,
				0.649992048740387,
				-2.542656898498535
			],
			"type":"VEC3"
		},
		{
			"bufferView":13,
			"componentType":5126,
			"count":357055,
			"type":"VEC3"
		},
		{
			"bufferView":14,
			"componentType":5126,
			"count":357055,
			"type":"VEC2"
		},
		{
			"bufferView":15,
			"componentType":5125,
			"count":1513752,
			"type":"SCALAR"
		}
	],
	"bufferViews":[
		{
			"buffer":0,
			"byteLength":199692,
			"byteOffset":0,
			"target":34962
		},
		{
			"buffer":0,
			"byteLength":199692,
			"byteOffset":199692,
			"target":34962
		},
		{
			"buffer":0,
			"byteLength":133128,
			"byteOffset":399384,
			"target":34962
		},
		{
			"buffer":0,
			"byteLength":196608,
			"byteOffset":532512,
			"target":34963
		},
		{
			"buffer":0,
			"byteLength":232140,
			"byteOffset":729120,
			"target":34962
		},
		{
			"buffer":0,
			"byteLength":232140,
			"byteOffset":961260,
			"target":34962
		},
		{
			"buffer":0,
			"byteLength":154760,
			"byteOffset":1193400,
			"target":34962
		},
		{
			"buffer":0,
			"byteLength":208722,
			"byteOffset":1348160,
			"target":34963
		},
		{
			"buffer":0,
			"byteLength":11130336,
			"byteOffset":1556884,
			"target":34962
		},
		{
			"buffer":0,
			"byteLength":11130336,
			"byteOffset":12687220,
			"target":34962
		},
		{
			"buffer":0,
			"byteLength":7420224,
			"byteOffset":23817556,
			"target":34962
		},
		{
			"buffer":0,
			"byteLength":12720384,
			"byteOffset":31237780,
			"target":34963
		},
		{
			"buffer":0,
			"byteLength":4284660,
			"byteOffset":43958164,
			"target":34962
		},
		{
			"buffer":0,
			"byteLength":4284660,
			"byteOffset":48242824,
			"target":34962
		},
		{
			"buffer":0,
			"byteLength":2856440,
			"byteOffset":52527484,
			"target":34962
		},
		{
			"buffer":0,
			"byteLength":6055008,
			"byteOffset":55383924,
			"target":34963
		}
	],
	"samplers":[
		{
			"magFilter":9729,
			"minFilter":9987
		}
	],
	"buffers":[
		{
			"byteLength":61438932,
			"uri":"sceneTest.bin"
		}
	]
}
